<?xml version="1.0" standalone="no"?>
<!DOCTYPE svg PUBLIC "-//W3C//DTD SVG 20010904//EN"
 "http://www.w3.org/TR/2001/REC-SVG-20010904/DTD/svg10.dtd">
<svg version="1.0" xmlns="http://www.w3.org/2000/svg"
 width="264.000000pt" height="264.000000pt" viewBox="0 0 264.000000 264.000000"
 preserveAspectRatio="xMidYMid meet">
<metadata>
Created by potrace 1.14, written by Peter Selinger 2001-2017
</metadata>
<g transform="translate(0.000000,264.000000) scale(0.100000,-0.100000)"
fill="#000000" stroke="none">
<path d="M90 1360 l0 -750 110 0 110 0 0 293 0 292 62 54 c51 46 62 52 72 40
6 -8 121 -164 255 -347 l243 -332 125 0 c99 0 123 3 116 13 -25 31 -572 794
-583 813 -12 20 5 42 266 330 153 170 285 317 293 327 13 16 6 17 -110 17
l-124 -1 -295 -334 c-162 -183 -301 -334 -307 -334 -10 -1 -13 72 -13 334 l0
335 -110 0 -110 0 0 -750z"/>
<path d="M1550 1361 l0 -751 314 0 c344 0 428 9 522 55 118 58 193 161 215
293 35 211 -68 373 -271 425 l-55 14 57 17 c196 57 286 291 188 492 -45 91
-112 139 -248 176 -68 18 -113 21 -399 25 l-323 5 0 -751z m629 563 c101 -34
151 -105 151 -214 0 -110 -41 -177 -127 -211 -51 -20 -80 -23 -245 -27 l-188
-4 0 242 0 242 178 -4 c135 -4 190 -10 231 -24z m35 -639 c62 -23 128 -87 144
-141 15 -53 15 -155 0 -207 -20 -66 -81 -121 -162 -146 -58 -18 -94 -21 -247
-21 l-179 0 0 271 0 271 198 -4 c159 -4 207 -8 246 -23z"/>
</g>
</svg>
